# xmcd
#
# Track frame offsets:
#	150
#	17297
#	34537
#	52592
#	69040
#	85785
#	104612
#	122567
#	138470
#	156237
#	171987
#	190152
#	208250
#	224777
#	242387
#	259447
#	275425
#	291912
#
# Disc length: 4172 seconds
#
# Revision: 3
# Processed by: cddbd v1.5.2PL0 Copyright (c) Steve Scherf et al.
# Submitted via: audiograbber 1.83.01
#
DISCID=03104a12
DTITLE=Various Artist - 90's Hits [CD2]
DYEAR=1997
DGENRE=Pop
TTITLE0=Snap! - The Power
TTITLE1=Reel 2 Real Feat. The Mad Stuntman - I Like To Move It
TTITLE2=Dr. Alban - It's My Life
TTITLE3=Culture Beat - Got To Get It (Radio Edition)
TTITLE4=Subsonic 2 - Unsung Heroes Of Hip-Hop
TTITLE5=C and C Music Factory and Freedom Williams - Things That Make You Go Hm
TTITLE5=mm (7" Remix)
TTITLE6=Grid - Swamp Thing (Radio Mix)
TTITLE7=UK Mixmasters - Bare Necessities Mega Mix
TTITLE8=Apollo 440 - [Don't Fear) The Reaper
TTITLE9=Q Feat. Tracy Ackerman - Get Here
TTITLE10=Chimes - I Still Haven't Found What I'm Looking For
TTITLE11=Des'ree - You Gotta Be
TTITLE12=Michelle Gayle - Sweetness
TTITLE13=Eternal - Just A Step From Heaven (Radio Mix)
TTITLE14=SWV - Right Here [Human Nature Radio Mix]
TTITLE15=Pasadenas - I'm Doing Fine Now
TTITLE16=Shabba Ranks - Mr Loverman
TTITLE17=Gloria Estefan - Mi Tierra
EXTD=Readers Digest
EXTT0=
EXTT1=
EXTT2=
EXTT3=
EXTT4=
EXTT5=
EXTT6=
EXTT7=
EXTT8=
EXTT9=
EXTT10=
EXTT11=
EXTT12=
EXTT13=
EXTT14=
EXTT15=
EXTT16=
EXTT17=
PLAYORDER=
